<svg xmlns="http://www.w3.org/2000/svg" viewBox="0 0 640 640" role="img" aria-labelledby="title">
  <title>Brown sugar milk with syrup and pearls</title>
  <defs>
    <linearGradient id="bg" x1="0" x2="1" y1="0" y2="1">
      <stop offset="0" stop-color="#fef3c7"/>
      <stop offset="1" stop-color="#cffafe"/>
    </linearGradient>
    <linearGradient id="milk" x1="0" x2="0" y1="0" y2="1">
      <stop offset="0" stop-color="#fff7ed"/>
      <stop offset=".58" stop-color="#f3dbc4"/>
      <stop offset="1" stop-color="#a16207"/>
    </linearGradient>
  </defs>
  <rect width="640" height="640" fill="url(#bg)"/>
  <circle cx="482" cy="138" r="84" fill="#fde68a" opacity=".62"/>
  <circle cx="149" cy="503" r="82" fill="#a7f3d0" opacity=".44"/>
  <path d="M218 174h204l-27 346c-3 42-38 74-80 74s-77-32-80-74l-27-346z" fill="#fff" opacity=".58"/>
  <path d="M229 211h182l-22 297c-3 35-32 62-67 62h-14c-35 0-64-27-67-62l-22-297z" fill="url(#milk)"/>
  <path d="M261 213c-26 88 53 107 19 190-14 34-7 71 16 100" fill="none" stroke="#7c2d12" stroke-width="31" stroke-linecap="round" opacity=".78"/>
  <path d="M366 219c-50 75 17 111-25 180-21 34-16 73 10 103" fill="none" stroke="#92400e" stroke-width="26" stroke-linecap="round" opacity=".64"/>
  <ellipse cx="320" cy="211" rx="92" ry="18" fill="#fff7ed"/>
  <g fill="#1c100b">
    <circle cx="277" cy="511" r="17"/>
    <circle cx="318" cy="531" r="16"/>
    <circle cx="360" cy="505" r="17"/>
    <circle cx="296" cy="468" r="14"/>
    <circle cx="344" cy="462" r="14"/>
  </g>
  <path d="M249 144h151" stroke="#431407" stroke-width="18" stroke-linecap="round"/>
  <path d="M383 62l-34 235" stroke="#78350f" stroke-width="14" stroke-linecap="round"/>
</svg>
