<svg xmlns="http://www.w3.org/2000/svg" viewBox="0 0 640 640" role="img" aria-labelledby="title">
  <title>Classic milk tea with tapioca pearls</title>
  <defs>
    <linearGradient id="bg" x1="0" x2="1" y1="0" y2="1">
      <stop offset="0" stop-color="#fff7ed"/>
      <stop offset="1" stop-color="#dbeafe"/>
    </linearGradient>
    <linearGradient id="tea" x1="0" x2="0" y1="0" y2="1">
      <stop offset="0" stop-color="#d9a66f"/>
      <stop offset=".6" stop-color="#bd7f45"/>
      <stop offset="1" stop-color="#7a492c"/>
    </linearGradient>
  </defs>
  <rect width="640" height="640" fill="url(#bg)"/>
  <circle cx="477" cy="137" r="78" fill="#fed7aa" opacity=".55"/>
  <circle cx="137" cy="497" r="94" fill="#bfdbfe" opacity=".52"/>
  <path d="M225 176h190l-24 343c-3 42-38 74-80 74h-1c-42 0-77-32-80-74l-25-343z" fill="#fff" opacity=".58"/>
  <path d="M234 211h172l-20 291c-3 36-33 64-69 64h-7c-36 0-66-28-69-64l-20-291z" fill="url(#tea)"/>
  <path d="M225 176h190l-4 52H229l-4-52z" fill="#fff" opacity=".5"/>
  <ellipse cx="320" cy="211" rx="86" ry="17" fill="#f5d4ac"/>
  <g fill="#231815">
    <circle cx="278" cy="511" r="16"/>
    <circle cx="315" cy="530" r="15"/>
    <circle cx="354" cy="506" r="16"/>
    <circle cx="291" cy="469" r="14"/>
    <circle cx="342" cy="462" r="13"/>
  </g>
  <path d="M256 146h145" stroke="#292524" stroke-width="18" stroke-linecap="round"/>
  <path d="M384 61l-35 232" stroke="#78350f" stroke-width="14" stroke-linecap="round"/>
  <path d="M251 279c40 22 93 19 136-8" stroke="#fff7ed" stroke-width="16" stroke-linecap="round" opacity=".38"/>
  <path d="M238 181h164" stroke="#292524" stroke-width="8" stroke-linecap="round" opacity=".18"/>
</svg>
