<svg xmlns="http://www.w3.org/2000/svg" viewBox="0 0 640 640" role="img" aria-labelledby="title">
  <title>Passionfruit green tea with fruit pieces</title>
  <defs>
    <linearGradient id="bg" x1="0" x2="1" y1="0" y2="1">
      <stop offset="0" stop-color="#ecfccb"/>
      <stop offset="1" stop-color="#fef9c3"/>
    </linearGradient>
    <linearGradient id="tea" x1="0" x2="0" y1="0" y2="1">
      <stop offset="0" stop-color="#fef08a"/>
      <stop offset=".55" stop-color="#bef264"/>
      <stop offset="1" stop-color="#65a30d"/>
    </linearGradient>
  </defs>
  <rect width="640" height="640" fill="url(#bg)"/>
  <circle cx="470" cy="146" r="82" fill="#fde047" opacity=".5"/>
  <circle cx="146" cy="501" r="92" fill="#bbf7d0" opacity=".55"/>
  <path d="M220 176h200l-27 343c-3 42-37 74-79 74s-76-32-79-74l-27-343z" fill="#fff" opacity=".5"/>
  <path d="M231 212h178l-22 294c-3 35-32 62-67 62h-12c-35 0-64-27-67-62l-22-294z" fill="url(#tea)"/>
  <ellipse cx="320" cy="212" rx="90" ry="18" fill="#fef9c3"/>
  <g>
    <circle cx="286" cy="333" r="22" fill="#facc15"/>
    <circle cx="358" cy="377" r="25" fill="#fde047"/>
    <circle cx="304" cy="442" r="20" fill="#facc15"/>
    <circle cx="342" cy="314" r="8" fill="#581c87"/>
    <circle cx="271" cy="386" r="7" fill="#581c87"/>
    <circle cx="377" cy="438" r="7" fill="#581c87"/>
  </g>
  <path d="M247 281c42 19 93 16 136-8" stroke="#fff" stroke-width="16" stroke-linecap="round" opacity=".36"/>
  <path d="M251 146h149" stroke="#365314" stroke-width="18" stroke-linecap="round"/>
  <path d="M383 62l-34 234" stroke="#65a30d" stroke-width="14" stroke-linecap="round"/>
</svg>
